<svg width="308" height="406" viewBox="0 0 308 406" fill="none" xmlns="http://www.w3.org/2000/svg">
<rect width="308" height="406" fill="#F5F5F5"/>
<line x1="2.25123" y1="401.316" x2="152.251" y2="345.316" stroke="black" stroke-width="10"/>
<line x1="155.749" y1="345.316" x2="305.751" y2="401.31" stroke="black" stroke-width="10"/>
<line x1="151" y1="0.942697" x2="155" y2="349.943" stroke="black" stroke-width="10"/>
<circle cx="250.5" cy="265.5" r="42.5" fill="#D9D9D9"/>
<rect x="46" y="223" width="201" height="85" fill="#D9D9D9"/>
<circle cx="46.5" cy="265.5" r="42.5" fill="#D9D9D9"/>
<path d="M260 263C260 272.389 252.389 280 243 280C233.611 280 226 272.389 226 263C226 253.611 233.611 246 243 246C252.389 246 260 253.611 260 263Z" fill="white"/>
<circle cx="201" cy="263" r="17" fill="white"/>
<rect x="46" y="237" width="16" height="9" fill="#E50000"/>
<rect x="69" y="237" width="16" height="9" fill="#E50000"/>
<rect x="92" y="237" width="16" height="9" fill="#E50000"/>
<rect x="115" y="237" width="16" height="9" fill="#E50000"/>
<rect x="138" y="237" width="16" height="9" fill="#E50000"/>
<rect x="138" y="237" width="16" height="9" fill="#E50000"/>
<rect x="46" y="252" width="16" height="9" fill="#E50000"/>
<rect x="69" y="252" width="16" height="9" fill="#E50000"/>
<rect x="69" y="267" width="16" height="9" fill="#E50000"/>
<rect x="92" y="252" width="16" height="9" fill="#E50000"/>
<rect x="92" y="267" width="16" height="9" fill="#E50000"/>
<rect x="115" y="252" width="16" height="9" fill="#E50000"/>
<rect x="115" y="267" width="16" height="9" fill="#E50000"/>
<rect x="138" y="252" width="16" height="9" fill="#E50000"/>
<rect x="138" y="267" width="16" height="9" fill="#E50000"/>
<rect x="46" y="267" width="16" height="9" fill="#E50000"/>
<rect x="46" y="282" width="16" height="9" fill="#E50000"/>
<rect x="69" y="282" width="16" height="9" fill="#E50000"/>
<rect x="92" y="282" width="16" height="9" fill="#E50000"/>
<rect x="115" y="282" width="16" height="9" fill="#E50000"/>
<rect x="138" y="282" width="16" height="9" fill="#E50000"/>
<circle cx="250.5" cy="70.5" r="42.5" fill="#D9D9D9"/>
<rect x="46" y="28" width="201" height="85" fill="#D9D9D9"/>
<circle cx="46.5" cy="70.5" r="42.5" fill="#D9D9D9"/>
<path d="M260 68C260 77.3888 252.389 85 243 85C233.611 85 226 77.3888 226 68C226 58.6112 233.611 51 243 51C252.389 51 260 58.6112 260 68Z" fill="white"/>
<circle cx="201" cy="68" r="17" fill="white"/>
<rect x="46" y="42" width="16" height="9" fill="#E50000"/>
<rect x="69" y="42" width="16" height="9" fill="#E50000"/>
<rect x="92" y="42" width="16" height="9" fill="#E50000"/>
<rect x="115" y="42" width="16" height="9" fill="#E50000"/>
<rect x="138" y="42" width="16" height="9" fill="#E50000"/>
<rect x="138" y="42" width="16" height="9" fill="#E50000"/>
<rect x="46" y="57" width="16" height="9" fill="#E50000"/>
<rect x="69" y="57" width="16" height="9" fill="#E50000"/>
<rect x="69" y="72" width="16" height="9" fill="#E50000"/>
<rect x="92" y="57" width="16" height="9" fill="#E50000"/>
<rect x="92" y="72" width="16" height="9" fill="#E50000"/>
<rect x="115" y="57" width="16" height="9" fill="#E50000"/>
<rect x="115" y="72" width="16" height="9" fill="#E50000"/>
<rect x="138" y="57" width="16" height="9" fill="#E50000"/>
<rect x="138" y="72" width="16" height="9" fill="#E50000"/>
<rect x="46" y="72" width="16" height="9" fill="#E50000"/>
<rect x="46" y="87" width="16" height="9" fill="#E50000"/>
<rect x="69" y="87" width="16" height="9" fill="#E50000"/>
<rect x="92" y="87" width="16" height="9" fill="#E50000"/>
<rect x="115" y="87" width="16" height="9" fill="#E50000"/>
<rect x="138" y="87" width="16" height="9" fill="#E50000"/>
<circle cx="250.5" cy="170.5" r="42.5" fill="#D9D9D9"/>
<rect x="46" y="128" width="201" height="85" fill="#D9D9D9"/>
<circle cx="46.5" cy="170.5" r="42.5" fill="#D9D9D9"/>
<path d="M260 168C260 177.389 252.389 185 243 185C233.611 185 226 177.389 226 168C226 158.611 233.611 151 243 151C252.389 151 260 158.611 260 168Z" fill="white"/>
<circle cx="201" cy="168" r="17" fill="white"/>
<rect x="46" y="142" width="16" height="9" fill="#E50000"/>
<rect x="69" y="142" width="16" height="9" fill="#E50000"/>
<rect x="92" y="142" width="16" height="9" fill="#E50000"/>
<rect x="115" y="142" width="16" height="9" fill="#E50000"/>
<rect x="138" y="142" width="16" height="9" fill="#E50000"/>
<rect x="138" y="142" width="16" height="9" fill="#E50000"/>
<rect x="46" y="157" width="16" height="9" fill="#E50000"/>
<rect x="69" y="157" width="16" height="9" fill="#E50000"/>
<rect x="69" y="172" width="16" height="9" fill="#E50000"/>
<rect x="92" y="157" width="16" height="9" fill="#E50000"/>
<rect x="92" y="172" width="16" height="9" fill="#E50000"/>
<rect x="115" y="157" width="16" height="9" fill="#E50000"/>
<rect x="115" y="172" width="16" height="9" fill="#E50000"/>
<rect x="138" y="157" width="16" height="9" fill="#E50000"/>
<rect x="138" y="172" width="16" height="9" fill="#E50000"/>
<rect x="46" y="172" width="16" height="9" fill="#E50000"/>
<rect x="46" y="187" width="16" height="9" fill="#E50000"/>
<rect x="69" y="187" width="16" height="9" fill="#E50000"/>
<rect x="92" y="187" width="16" height="9" fill="#E50000"/>
<rect x="115" y="187" width="16" height="9" fill="#E50000"/>
<rect x="138" y="187" width="16" height="9" fill="#E50000"/>
</svg>
